<svg xmlns="http://www.w3.org/2000/svg" viewBox="0 0 748.8 224.0" width="749" height="224" font-family="ui-monospace, Menlo, 'DejaVu Sans Mono', Consolas, monospace" font-size="13" shape-rendering="crispEdges">
<rect width="100%" height="100%" fill="#ffffff"/>
<text x="210.6" y="12.5" fill="#1f2328" textLength="327.6" lengthAdjust="spacingAndGlyphs" xml:space="preserve">creation: ns per element (lower is better)</text>
<rect x="85.80" y="18.00" width="101.40" height="14.00" fill="#1f2328"/>
<text x="15.6" y="28.5" fill="#1f2328" textLength="39.0" lengthAdjust="spacingAndGlyphs" xml:space="preserve">2.0 ┤</text>
<rect x="85.80" y="32.00" width="101.40" height="16.00" fill="#1f2328"/>
<rect x="616.20" y="44.00" width="93.60" height="4.00" fill="#1f2328"/>
<text x="46.8" y="44.5" fill="#1f2328" textLength="7.8" lengthAdjust="spacingAndGlyphs" xml:space="preserve">│</text>
<rect x="85.80" y="48.00" width="101.40" height="16.00" fill="#1f2328"/>
<rect x="483.60" y="48.00" width="93.60" height="16.00" fill="#1f2328"/>
<rect x="616.20" y="48.00" width="93.60" height="16.00" fill="#1f2328"/>
<text x="15.6" y="60.5" fill="#1f2328" textLength="39.0" lengthAdjust="spacingAndGlyphs" xml:space="preserve">1.5 ┤</text>
<rect x="85.80" y="64.00" width="101.40" height="16.00" fill="#1f2328"/>
<rect x="483.60" y="64.00" width="93.60" height="16.00" fill="#1f2328"/>
<rect x="616.20" y="64.00" width="93.60" height="16.00" fill="#1f2328"/>
<text x="46.8" y="76.5" fill="#1f2328" textLength="7.8" lengthAdjust="spacingAndGlyphs" xml:space="preserve">│</text>
<rect x="85.80" y="80.00" width="101.40" height="16.00" fill="#1f2328"/>
<rect x="351.00" y="92.00" width="101.40" height="4.00" fill="#1f2328"/>
<rect x="483.60" y="80.00" width="93.60" height="16.00" fill="#1f2328"/>
<rect x="616.20" y="80.00" width="93.60" height="16.00" fill="#1f2328"/>
<text x="0.0" y="92.5" fill="#1f2328" textLength="54.6" lengthAdjust="spacingAndGlyphs" xml:space="preserve">n     │</text>
<rect x="85.80" y="96.00" width="101.40" height="16.00" fill="#1f2328"/>
<rect x="218.40" y="104.00" width="101.40" height="8.00" fill="#1f2328"/>
<rect x="351.00" y="96.00" width="101.40" height="16.00" fill="#1f2328"/>
<rect x="483.60" y="96.00" width="93.60" height="16.00" fill="#1f2328"/>
<rect x="616.20" y="96.00" width="93.60" height="16.00" fill="#1f2328"/>
<text x="0.0" y="108.5" fill="#1f2328" textLength="54.6" lengthAdjust="spacingAndGlyphs" xml:space="preserve">s 1.0 ┤</text>
<rect x="85.80" y="112.00" width="101.40" height="16.00" fill="#1f2328"/>
<rect x="218.40" y="112.00" width="101.40" height="16.00" fill="#1f2328"/>
<rect x="351.00" y="112.00" width="101.40" height="16.00" fill="#1f2328"/>
<rect x="483.60" y="112.00" width="93.60" height="16.00" fill="#1f2328"/>
<rect x="616.20" y="112.00" width="93.60" height="16.00" fill="#1f2328"/>
<text x="46.8" y="124.5" fill="#1f2328" textLength="7.8" lengthAdjust="spacingAndGlyphs" xml:space="preserve">│</text>
<rect x="85.80" y="128.00" width="101.40" height="16.00" fill="#1f2328"/>
<rect x="218.40" y="128.00" width="101.40" height="16.00" fill="#1f2328"/>
<rect x="351.00" y="128.00" width="101.40" height="16.00" fill="#1f2328"/>
<rect x="483.60" y="128.00" width="93.60" height="16.00" fill="#1f2328"/>
<rect x="616.20" y="128.00" width="93.60" height="16.00" fill="#1f2328"/>
<text x="46.8" y="140.5" fill="#1f2328" textLength="7.8" lengthAdjust="spacingAndGlyphs" xml:space="preserve">│</text>
<rect x="85.80" y="144.00" width="101.40" height="16.00" fill="#1f2328"/>
<rect x="218.40" y="144.00" width="101.40" height="16.00" fill="#1f2328"/>
<rect x="351.00" y="144.00" width="101.40" height="16.00" fill="#1f2328"/>
<rect x="483.60" y="144.00" width="93.60" height="16.00" fill="#1f2328"/>
<rect x="616.20" y="144.00" width="93.60" height="16.00" fill="#1f2328"/>
<text x="15.6" y="156.5" fill="#1f2328" textLength="39.0" lengthAdjust="spacingAndGlyphs" xml:space="preserve">0.5 ┤</text>
<rect x="85.80" y="160.00" width="101.40" height="16.00" fill="#1f2328"/>
<rect x="218.40" y="160.00" width="101.40" height="16.00" fill="#1f2328"/>
<rect x="351.00" y="160.00" width="101.40" height="16.00" fill="#1f2328"/>
<rect x="483.60" y="160.00" width="93.60" height="16.00" fill="#1f2328"/>
<rect x="616.20" y="160.00" width="93.60" height="16.00" fill="#1f2328"/>
<text x="46.8" y="172.5" fill="#1f2328" textLength="7.8" lengthAdjust="spacingAndGlyphs" xml:space="preserve">│</text>
<rect x="85.80" y="176.00" width="101.40" height="16.00" fill="#1f2328"/>
<rect x="218.40" y="176.00" width="101.40" height="16.00" fill="#1f2328"/>
<rect x="351.00" y="176.00" width="101.40" height="16.00" fill="#1f2328"/>
<rect x="483.60" y="176.00" width="93.60" height="16.00" fill="#1f2328"/>
<rect x="616.20" y="176.00" width="93.60" height="16.00" fill="#1f2328"/>
<text x="15.6" y="188.5" fill="#1f2328" textLength="39.0" lengthAdjust="spacingAndGlyphs" xml:space="preserve">0.0 ┤</text>
<text x="46.8" y="204.5" fill="#1f2328" textLength="702.0" lengthAdjust="spacingAndGlyphs" xml:space="preserve">└─────────────────────────────────────────────────────────────────────────────────────────</text>
<text x="93.6" y="220.5" fill="#1f2328" textLength="608.4" lengthAdjust="spacingAndGlyphs" xml:space="preserve">Range&lt;usize&gt;    Range&lt;usize&gt;      Range&lt;u32&gt;       SR&lt;u64, 32&gt;      SR&lt;u32, 8&gt;</text>
</svg>
